<svg xmlns="http://www.w3.org/2000/svg" width="20.25" height="13.5" viewBox="0 0 20.25 13.5">
  <path id="Icon_awesome-folder-open" data-name="Icon awesome-folder-open" d="M20.134,12.519l-2.546,4.365A2.25,2.25,0,0,1,15.644,18H1.583a.844.844,0,0,1-.729-1.269L3.4,12.366A2.25,2.25,0,0,1,5.344,11.25H19.4a.844.844,0,0,1,.729,1.269ZM5.344,10.125H16.875V8.438A1.687,1.687,0,0,0,15.188,6.75H9.563L7.313,4.5H1.688A1.687,1.687,0,0,0,0,6.188v9.775L2.428,11.8A3.386,3.386,0,0,1,5.344,10.125Z" transform="translate(0 -4.5)" fill="#0c2556"/>
</svg>
