<svg xmlns="http://www.w3.org/2000/svg" width="10.5" height="14" viewBox="0 0 10.5 14">
  <path id="Icon_awesome-file-code" data-name="Icon awesome-file-code" d="M10.5,3.334V3.5H7V0h.166A.656.656,0,0,1,7.63.192L10.308,2.87a.656.656,0,0,1,.192.464ZM6.781,4.375a.658.658,0,0,1-.656-.656V0H.656A.656.656,0,0,0,0,.656V13.344A.656.656,0,0,0,.656,14H9.844a.656.656,0,0,0,.656-.656V4.375ZM3.369,10.951a.148.148,0,0,1-.209.007L1.387,9.3a.148.148,0,0,1,0-.215L3.16,7.417a.148.148,0,0,1,.209.007l.535.571a.148.148,0,0,1-.01.212l-1.115.981,1.115.981a.148.148,0,0,1,.01.212Zm1.4,1.38-.751-.218a.148.148,0,0,1-.1-.183L5.6,6.144a.148.148,0,0,1,.183-.1l.751.218a.148.148,0,0,1,.1.183l-1.68,5.787a.148.148,0,0,1-.183.1ZM9.168,9.3,7.394,10.958a.148.148,0,0,1-.209-.007L6.65,10.38a.148.148,0,0,1,.01-.212l1.115-.981L6.661,8.207a.148.148,0,0,1-.01-.212l.535-.571a.148.148,0,0,1,.209-.007L9.168,9.08a.148.148,0,0,1,0,.215Z" fill="#0c2556"/>
</svg>
